<svg width="31" height="37" viewBox="0 0 31 37" fill="none" xmlns="http://www.w3.org/2000/svg">
<path d="M29.856 5.37126C29.856 5.37126 28.4846 12.2509 28.4833 15.5975C28.4816 19.975 30.4346 22.7975 29.9357 27.1657C28.605 32.1664 28.5769 33.5221 19.222 35.6064C15.7683 36.4631 5.10188 36.3055 5.10188 36.3055C3.65022 36.2925 1.19326 37.125 0.811732 35.5929C0.430226 34.0609 1.93651 32.4977 3.52031 32.0994L9.90107 31.0961C11.3938 30.6227 12.76 29.3335 12.3115 27.3264C11.5508 24.3795 10.6958 22.1839 8.60805 20.1564L0.559286 12.5156C0.0336035 11.8787 -0.3556 10.6664 0.507899 9.86688C1.37138 9.06732 2.71188 9.60234 3.27752 10.218L11.9443 17.4524C12.7952 17.9268 14.0544 17.7454 13.6072 16.3962L7.47508 3.9445C7.06444 3.05362 7.25434 1.80368 8.33042 1.53572C9.74275 1.18402 10.7464 1.50997 10.9328 2.37531L17.3054 14.5807C17.7081 15.1517 18.557 14.8507 18.6458 14.2094L16.3949 1.35782C16.3405 0.943534 16.6881 0.111292 17.7273 0.00791519C18.7663 -0.0954982 19.6135 0.840928 19.6114 1.28537L22.4287 13.836C22.9077 14.8913 23.8124 14.8375 24.3314 14.0525L26.7559 5.05868C26.8578 4.32961 27.8685 3.93133 28.5385 4.0435C29.1927 4.27195 29.6827 4.67546 29.856 5.37126Z" fill="url(#paint0_linear_6_239)"/>
<defs>
<linearGradient id="paint0_linear_6_239" x1="10.4824" y1="0.999826" x2="19.1138" y2="35.6609" gradientUnits="userSpaceOnUse">
<stop stop-color="#6AD2FF"/>
<stop offset="1" stop-color="#009DFF"/>
</linearGradient>
</defs>
</svg>
